<svg xmlns="http://www.w3.org/2000/svg" viewBox="0 0 98.93 96.46"><defs><style>.a,.b,.c,.d,.e,.f{fill:none;}.a,.b,.d,.e,.f{stroke:#9a9491;stroke-miterlimit:10;}.a{stroke-width:0.5px;}.d{stroke-width:3px;}.e{stroke-width:2px;}.f{stroke-width:1.5px;}.g{fill:#3dafc6;}</style></defs><title>Asset 5</title><line class="a" x1="46.32" y1="8.15" x2="74.47" y2="27.92"/><line class="b" x1="57.53" y1="47.92" x2="28.15" y2="33.31"/><line class="c" x1="46.32" y1="4.29" x2="28.15" y2="33.31"/><line class="b" x1="8.15" y1="53.31" x2="31.15" y2="68.31"/><line class="d" x1="8.15" y1="53.31" x2="11.15" y2="88.31"/><line class="a" x1="90.78" y1="47.92" x2="62.62" y2="72.81"/><line class="b" x1="74.47" y1="27.92" x2="62.62" y2="72.81"/><line class="b" x1="62.62" y1="72.81" x2="57.53" y2="47.92"/><line class="a" x1="11.15" y1="88.31" x2="31.15" y2="68.39"/><line class="e" x1="8.15" y1="53.31" x2="28.15" y2="33.31"/><line class="f" x1="31.15" y1="68.39" x2="57.53" y2="47.92"/><line class="a" x1="46.32" y1="8.15" x2="30.73" y2="68.03"/><line class="a" x1="90.78" y1="47.92" x2="57.53" y2="47.92"/><circle class="g" cx="28.15" cy="33.31" r="8.15"/><circle class="g" cx="31.15" cy="68.31" r="8.15"/><circle class="g" cx="74.47" cy="27.92" r="8.15"/><circle class="g" cx="11.15" cy="88.31" r="8.15"/><circle class="g" cx="62.62" cy="72.81" r="8.15"/><circle class="g" cx="90.78" cy="47.92" r="8.15"/><circle class="g" cx="46.32" cy="8.15" r="8.15"/><line class="f" x1="8.15" y1="53.31" x2="54.47" y2="47.92"/><circle class="g" cx="8.15" cy="53.31" r="8.15"/><circle class="g" cx="54.47" cy="47.92" r="8.15"/></svg>